<svg width="648" height="338" viewBox="0 0 648 338" fill="none" xmlns="http://www.w3.org/2000/svg">
<path d="M644.544 151.582C634.727 168.692 489.791 226.812 343.54 108.692C179.977 -23.4179 71.4321 3.08206 71.4321 3.08206" stroke="url(#paint0_linear_0_139)" stroke-miterlimit="10"></path>
<path d="M644.529 160.282C629.628 179.712 491.617 231.032 353.781 124.212C195.492 1.55187 92.9802 16.2219 65.4276 16.7319" stroke="url(#paint1_linear_0_139)" stroke-width="1.44" stroke-miterlimit="10"></path>
<path d="M644.501 169.382C624.53 191.132 493.268 235.712 363.993 140.142C210.876 26.9519 114.544 29.7619 59.4385 30.7819" stroke="url(#paint2_linear_0_139)" stroke-width="1.89" stroke-miterlimit="10"></path>
<path d="M644.486 178.692C619.431 202.762 494.758 240.662 374.233 156.282C226.112 52.5923 136.106 43.5023 53.4484 45.0423" stroke="url(#paint3_linear_0_139)" stroke-width="2.33" stroke-miterlimit="10"></path>
<path d="M644.471 188.032C614.347 214.432 496.043 245.732 384.459 172.452C241.145 78.3119 157.654 57.2719 47.4438 59.3219" stroke="url(#paint4_linear_0_139)" stroke-width="2.78" stroke-miterlimit="10"></path>
<path d="M644.455 197.383C609.248 226.103 497.08 250.943 394.699 188.633C255.914 104.163 179.216 71.0627 41.4532 73.6127" stroke="url(#paint5_linear_0_139)" stroke-width="3.22" stroke-miterlimit="10"></path>
<path d="M644.442 206.622C604.165 237.662 497.841 256.212 404.942 204.702C270.378 130.092 200.766 84.7421 35.4504 87.8121" stroke="url(#paint6_linear_0_139)" stroke-width="3.67" stroke-miterlimit="10"></path>
<path d="M644.428 215.852C599.067 249.212 498.294 261.712 415.169 220.762C284.403 156.332 222.33 98.4019 29.4613 101.982" stroke="url(#paint7_linear_0_139)" stroke-width="4.11" stroke-miterlimit="10"></path>
<path d="M644.398 224.992C593.968 260.672 498.454 267.462 425.394 236.732C297.916 183.102 243.877 111.982 23.4559 116.072" stroke="url(#paint8_linear_0_139)" stroke-width="4.56" stroke-miterlimit="10"></path>
<path d="M644.383 234.012C588.869 272.012 498.439 273.572 435.62 252.572C310.815 210.852 265.44 125.432 17.4661 130.032" stroke="url(#paint9_linear_0_139)" stroke-width="5" stroke-miterlimit="10"></path>
<path d="M645.611 242.622C588.197 279.172 499.535 281.232 429.572 258.432C300.852 216.142 237.873 143.972 17.4518 148.062" stroke="url(#paint10_linear_0_139)" stroke-width="4.56" stroke-miterlimit="10"></path>
<path d="M646.823 251.203C587.51 286.303 500.528 288.983 423.495 264.253C290.713 221.613 210.291 162.473 17.4222 166.053" stroke="url(#paint11_linear_0_139)" stroke-width="4.11" stroke-miterlimit="10"></path>
<path d="M646.575 259.742C585.364 293.402 500.134 296.602 415.972 270.032C279.275 226.862 181.263 180.942 15.9476 184.002" stroke="url(#paint12_linear_0_139)" stroke-width="3.67" stroke-miterlimit="10"></path>
<path d="M645.201 268.263C582.076 300.473 498.615 304.183 407.308 275.793C266.696 232.063 151.095 199.373 13.3319 201.933" stroke="url(#paint13_linear_0_139)" stroke-width="3.22" stroke-miterlimit="10"></path>
<path d="M643.813 276.772C578.788 307.532 497.095 311.732 398.644 281.542C254.132 237.222 120.912 217.812 10.7016 219.852" stroke="url(#paint14_linear_0_139)" stroke-width="2.78" stroke-miterlimit="10"></path>
<path d="M642.426 285.312C575.502 314.622 495.591 319.302 389.968 287.322C241.584 242.392 90.7311 236.272 8.07324 237.812" stroke="url(#paint15_linear_0_139)" stroke-width="2.33" stroke-miterlimit="10"></path>
<path d="M641.038 294.252C572.215 322.122 494.174 327.132 381.304 293.502C229.151 247.802 60.563 255.142 5.45776 256.162" stroke="url(#paint16_linear_0_139)" stroke-width="1.89" stroke-miterlimit="10"></path>
<path d="M639.666 304.722C568.943 331.142 492.67 336.652 372.642 301.212C216.574 254.932 30.3817 275.532 2.82904 276.042" stroke="url(#paint17_linear_0_139)" stroke-width="1.44" stroke-miterlimit="10"></path>
<path d="M638.277 316.613C565.655 341.583 491.149 347.583 363.978 310.343C204.009 263.493 0.213013 297.343 0.213013 297.343" stroke="url(#paint18_linear_0_139)" stroke-miterlimit="10"></path>
<defs>
<linearGradient id="paint0_linear_0_139" x1="644.544" y1="152.069" x2="15.9272" y2="152.069" gradientUnits="userSpaceOnUse">
<stop stop-color="white"></stop>
<stop offset="1" stop-color="white" stop-opacity="0"></stop>
</linearGradient>
<linearGradient id="paint1_linear_0_139" x1="644.529" y1="161.831" x2="9.34255" y2="161.831" gradientUnits="userSpaceOnUse">
<stop stop-color="white"></stop>
<stop offset="1" stop-color="white" stop-opacity="0"></stop>
</linearGradient>
<linearGradient id="paint2_linear_0_139" x1="644.501" y1="171.882" x2="2.77615" y2="171.882" gradientUnits="userSpaceOnUse">
<stop stop-color="white"></stop>
<stop offset="1" stop-color="white" stop-opacity="0"></stop>
</linearGradient>
<linearGradient id="paint3_linear_0_139" x1="644.486" y1="182.094" x2="-3.79264" y2="182.094" gradientUnits="userSpaceOnUse">
<stop stop-color="white"></stop>
<stop offset="1" stop-color="white" stop-opacity="0"></stop>
</linearGradient>
<linearGradient id="paint4_linear_0_139" x1="644.471" y1="192.356" x2="-10.3773" y2="192.356" gradientUnits="userSpaceOnUse">
<stop stop-color="white"></stop>
<stop offset="1" stop-color="white" stop-opacity="0"></stop>
</linearGradient>
<linearGradient id="paint5_linear_0_139" x1="644.455" y1="202.672" x2="-16.9465" y2="202.672" gradientUnits="userSpaceOnUse">
<stop stop-color="white"></stop>
<stop offset="1" stop-color="white" stop-opacity="0"></stop>
</linearGradient>
<linearGradient id="paint6_linear_0_139" x1="644.442" y1="212.944" x2="-23.5295" y2="212.944" gradientUnits="userSpaceOnUse">
<stop stop-color="white"></stop>
<stop offset="1" stop-color="white" stop-opacity="0"></stop>
</linearGradient>
<linearGradient id="paint7_linear_0_139" x1="644.428" y1="223.296" x2="-30.0972" y2="223.296" gradientUnits="userSpaceOnUse">
<stop stop-color="white"></stop>
<stop offset="1" stop-color="white" stop-opacity="0"></stop>
</linearGradient>
<linearGradient id="paint8_linear_0_139" x1="644.398" y1="233.698" x2="-36.6813" y2="233.698" gradientUnits="userSpaceOnUse">
<stop stop-color="white"></stop>
<stop offset="1" stop-color="white" stop-opacity="0"></stop>
</linearGradient>
<linearGradient id="paint9_linear_0_139" x1="644.383" y1="244.183" x2="-43.2498" y2="244.183" gradientUnits="userSpaceOnUse">
<stop stop-color="white"></stop>
<stop offset="1" stop-color="white" stop-opacity="0"></stop>
</linearGradient>
<linearGradient id="paint10_linear_0_139" x1="645.611" y1="253.144" x2="-43.3844" y2="253.144" gradientUnits="userSpaceOnUse">
<stop stop-color="white"></stop>
<stop offset="1" stop-color="white" stop-opacity="0"></stop>
</linearGradient>
<linearGradient id="paint11_linear_0_139" x1="646.823" y1="262.131" x2="-43.5342" y2="262.131" gradientUnits="userSpaceOnUse">
<stop stop-color="white"></stop>
<stop offset="1" stop-color="white" stop-opacity="0"></stop>
</linearGradient>
<linearGradient id="paint12_linear_0_139" x1="646.575" y1="271.063" x2="-45.1277" y2="271.063" gradientUnits="userSpaceOnUse">
<stop stop-color="white"></stop>
<stop offset="1" stop-color="white" stop-opacity="0"></stop>
</linearGradient>
<linearGradient id="paint13_linear_0_139" x1="645.201" y1="279.98" x2="-47.8636" y2="279.98" gradientUnits="userSpaceOnUse">
<stop stop-color="white"></stop>
<stop offset="1" stop-color="white" stop-opacity="0"></stop>
</linearGradient>
<linearGradient id="paint14_linear_0_139" x1="643.813" y1="288.893" x2="-50.6142" y2="288.893" gradientUnits="userSpaceOnUse">
<stop stop-color="white"></stop>
<stop offset="1" stop-color="white" stop-opacity="0"></stop>
</linearGradient>
<linearGradient id="paint15_linear_0_139" x1="642.426" y1="297.839" x2="-53.3628" y2="297.839" gradientUnits="userSpaceOnUse">
<stop stop-color="white"></stop>
<stop offset="1" stop-color="white" stop-opacity="0"></stop>
</linearGradient>
<linearGradient id="paint16_linear_0_139" x1="641.038" y1="307.03" x2="-56.0971" y2="307.03" gradientUnits="userSpaceOnUse">
<stop stop-color="white"></stop>
<stop offset="1" stop-color="white" stop-opacity="0"></stop>
</linearGradient>
<linearGradient id="paint17_linear_0_139" x1="639.666" y1="317.312" x2="-58.8475" y2="317.312" gradientUnits="userSpaceOnUse">
<stop stop-color="white"></stop>
<stop offset="1" stop-color="white" stop-opacity="0"></stop>
</linearGradient>
<linearGradient id="paint18_linear_0_139" x1="638.277" y1="328.566" x2="-61.5824" y2="328.566" gradientUnits="userSpaceOnUse">
<stop stop-color="white"></stop>
<stop offset="1" stop-color="white" stop-opacity="0"></stop>
</linearGradient>
</defs>
</svg>