<svg width="649" height="338" viewBox="0 0 649 338" fill="none" xmlns="http://www.w3.org/2000/svg">
<path d="M3.82877 186.668C13.646 169.558 158.582 111.438 304.833 229.557C468.396 361.667 576.941 335.167 576.941 335.167" stroke="url(#paint0_linear_0_159)" stroke-miterlimit="10"></path>
<path d="M3.84434 177.968C18.7455 158.538 156.757 107.218 294.593 214.038C452.882 336.698 555.393 322.028 582.946 321.518" stroke="url(#paint1_linear_0_159)" stroke-width="1.44" stroke-miterlimit="10"></path>
<path d="M3.87189 168.868C23.8424 147.118 155.105 102.538 284.38 198.108C437.497 311.298 533.829 308.488 588.934 307.468" stroke="url(#paint2_linear_0_159)" stroke-width="1.89" stroke-miterlimit="10"></path>
<path d="M3.88844 159.557C28.9429 135.487 153.616 97.5873 274.141 181.967C422.262 285.657 512.268 294.747 594.926 293.207" stroke="url(#paint3_linear_0_159)" stroke-width="2.33" stroke-miterlimit="10"></path>
<path d="M3.90158 150.218C34.0254 123.818 152.329 92.5182 263.913 165.798C407.227 259.938 490.718 280.978 600.929 278.928" stroke="url(#paint4_linear_0_159)" stroke-width="2.78" stroke-miterlimit="10"></path>
<path d="M3.91728 140.867C39.125 112.147 151.293 87.3074 253.673 149.617C392.459 234.087 469.156 267.187 606.919 264.637" stroke="url(#paint5_linear_0_159)" stroke-width="3.22" stroke-miterlimit="10"></path>
<path d="M3.93083 131.627C44.2079 100.587 150.532 82.0374 243.431 133.547C377.995 208.157 447.607 253.507 612.923 250.437" stroke="url(#paint6_linear_0_159)" stroke-width="3.67" stroke-miterlimit="10"></path>
<path d="M3.945 122.398C49.306 89.0382 150.079 76.5382 233.204 117.488C363.97 181.918 426.044 239.848 618.912 236.268" stroke="url(#paint7_linear_0_159)" stroke-width="4.11" stroke-miterlimit="10"></path>
<path d="M3.97547 113.258C54.4058 77.5775 149.92 70.7875 222.979 101.518C350.458 155.147 404.497 226.267 624.917 222.177" stroke="url(#paint8_linear_0_159)" stroke-width="4.56" stroke-miterlimit="10"></path>
<path d="M3.98927 104.238C59.5036 66.2379 149.933 64.6779 212.752 85.6779C337.557 127.398 382.933 212.818 630.906 208.218" stroke="url(#paint9_linear_0_159)" stroke-width="5" stroke-miterlimit="10"></path>
<path d="M2.76268 95.6279C60.1761 59.0779 148.838 57.0179 218.801 79.8179C347.521 122.108 410.501 194.278 630.922 190.188" stroke="url(#paint10_linear_0_159)" stroke-width="4.56" stroke-miterlimit="10"></path>
<path d="M1.55003 87.0475C60.8627 51.9475 147.845 49.2674 224.878 73.9974C357.66 116.637 438.082 175.777 630.951 172.197" stroke="url(#paint11_linear_0_159)" stroke-width="4.11" stroke-miterlimit="10"></path>
<path d="M1.79809 78.5081C63.0099 44.8481 148.239 41.6481 232.402 68.2181C369.098 111.388 467.11 157.308 632.426 154.248" stroke="url(#paint12_linear_0_159)" stroke-width="3.67" stroke-miterlimit="10"></path>
<path d="M3.17203 69.9874C66.2976 37.7774 149.759 34.0674 241.065 62.4574C381.677 106.187 497.278 138.877 635.042 136.317" stroke="url(#paint13_linear_0_159)" stroke-width="3.22" stroke-miterlimit="10"></path>
<path d="M4.55912 61.4779C69.5839 30.7179 151.278 26.5179 249.728 56.7079C394.24 101.028 527.46 120.438 637.67 118.398" stroke="url(#paint14_linear_0_159)" stroke-width="2.78" stroke-miterlimit="10"></path>
<path d="M5.94728 52.9375C72.8712 23.6275 152.783 18.9475 258.406 50.9275C406.79 95.8575 557.643 101.977 640.3 100.437" stroke="url(#paint15_linear_0_159)" stroke-width="2.33" stroke-miterlimit="10"></path>
<path d="M7.3356 43.9976C76.1587 16.1276 154.2 11.1176 267.069 44.7476C419.222 90.4476 587.811 83.1076 642.916 82.0876" stroke="url(#paint16_linear_0_159)" stroke-width="1.89" stroke-miterlimit="10"></path>
<path d="M8.70839 33.5285C79.4307 7.10849 155.704 1.59849 275.732 37.0385C431.8 83.3185 617.992 62.7184 645.545 62.2084" stroke="url(#paint17_linear_0_159)" stroke-width="1.44" stroke-miterlimit="10"></path>
<path d="M10.0958 21.6385C82.7172 -3.33153 157.223 -9.33152 284.395 27.9085C444.364 74.7585 648.16 40.9084 648.16 40.9084" stroke="url(#paint18_linear_0_159)" stroke-miterlimit="10"></path>
<defs>
<linearGradient id="paint0_linear_0_159" x1="3.82876" y1="186.181" x2="632.446" y2="186.181" gradientUnits="userSpaceOnUse">
<stop stop-color="white"></stop>
<stop offset="1" stop-color="white" stop-opacity="0"></stop>
</linearGradient>
<linearGradient id="paint1_linear_0_159" x1="3.84432" y1="176.419" x2="639.031" y2="176.419" gradientUnits="userSpaceOnUse">
<stop stop-color="white"></stop>
<stop offset="1" stop-color="white" stop-opacity="0"></stop>
</linearGradient>
<linearGradient id="paint2_linear_0_159" x1="3.87191" y1="166.368" x2="645.596" y2="166.368" gradientUnits="userSpaceOnUse">
<stop stop-color="white"></stop>
<stop offset="1" stop-color="white" stop-opacity="0"></stop>
</linearGradient>
<linearGradient id="paint3_linear_0_159" x1="3.88845" y1="156.155" x2="652.167" y2="156.155" gradientUnits="userSpaceOnUse">
<stop stop-color="white"></stop>
<stop offset="1" stop-color="white" stop-opacity="0"></stop>
</linearGradient>
<linearGradient id="paint4_linear_0_159" x1="3.90157" y1="145.894" x2="658.75" y2="145.894" gradientUnits="userSpaceOnUse">
<stop stop-color="white"></stop>
<stop offset="1" stop-color="white" stop-opacity="0"></stop>
</linearGradient>
<linearGradient id="paint5_linear_0_159" x1="3.91726" y1="135.578" x2="665.319" y2="135.578" gradientUnits="userSpaceOnUse">
<stop stop-color="white"></stop>
<stop offset="1" stop-color="white" stop-opacity="0"></stop>
</linearGradient>
<linearGradient id="paint6_linear_0_159" x1="3.93081" y1="125.306" x2="671.903" y2="125.306" gradientUnits="userSpaceOnUse">
<stop stop-color="white"></stop>
<stop offset="1" stop-color="white" stop-opacity="0"></stop>
</linearGradient>
<linearGradient id="paint7_linear_0_159" x1="3.94497" y1="114.954" x2="678.47" y2="114.954" gradientUnits="userSpaceOnUse">
<stop stop-color="white"></stop>
<stop offset="1" stop-color="white" stop-opacity="0"></stop>
</linearGradient>
<linearGradient id="paint8_linear_0_159" x1="3.97549" y1="104.551" x2="685.055" y2="104.551" gradientUnits="userSpaceOnUse">
<stop stop-color="white"></stop>
<stop offset="1" stop-color="white" stop-opacity="0"></stop>
</linearGradient>
<linearGradient id="paint9_linear_0_159" x1="3.98929" y1="94.0667" x2="691.622" y2="94.0667" gradientUnits="userSpaceOnUse">
<stop stop-color="white"></stop>
<stop offset="1" stop-color="white" stop-opacity="0"></stop>
</linearGradient>
<linearGradient id="paint10_linear_0_159" x1="2.76266" y1="85.1056" x2="691.758" y2="85.1056" gradientUnits="userSpaceOnUse">
<stop stop-color="white"></stop>
<stop offset="1" stop-color="white" stop-opacity="0"></stop>
</linearGradient>
<linearGradient id="paint11_linear_0_159" x1="1.55002" y1="76.1189" x2="691.907" y2="76.1188" gradientUnits="userSpaceOnUse">
<stop stop-color="white"></stop>
<stop offset="1" stop-color="white" stop-opacity="0"></stop>
</linearGradient>
<linearGradient id="paint12_linear_0_159" x1="1.79807" y1="67.1871" x2="693.501" y2="67.1871" gradientUnits="userSpaceOnUse">
<stop stop-color="white"></stop>
<stop offset="1" stop-color="white" stop-opacity="0"></stop>
</linearGradient>
<linearGradient id="paint13_linear_0_159" x1="3.17203" y1="58.2698" x2="696.237" y2="58.2697" gradientUnits="userSpaceOnUse">
<stop stop-color="white"></stop>
<stop offset="1" stop-color="white" stop-opacity="0"></stop>
</linearGradient>
<linearGradient id="paint14_linear_0_159" x1="4.55911" y1="49.3573" x2="698.986" y2="49.3573" gradientUnits="userSpaceOnUse">
<stop stop-color="white"></stop>
<stop offset="1" stop-color="white" stop-opacity="0"></stop>
</linearGradient>
<linearGradient id="paint15_linear_0_159" x1="5.9473" y1="40.411" x2="701.736" y2="40.411" gradientUnits="userSpaceOnUse">
<stop stop-color="white"></stop>
<stop offset="1" stop-color="white" stop-opacity="0"></stop>
</linearGradient>
<linearGradient id="paint16_linear_0_159" x1="7.33561" y1="31.2194" x2="704.471" y2="31.2193" gradientUnits="userSpaceOnUse">
<stop stop-color="white"></stop>
<stop offset="1" stop-color="white" stop-opacity="0"></stop>
</linearGradient>
<linearGradient id="paint17_linear_0_159" x1="8.70841" y1="20.9382" x2="707.222" y2="20.9382" gradientUnits="userSpaceOnUse">
<stop stop-color="white"></stop>
<stop offset="1" stop-color="white" stop-opacity="0"></stop>
</linearGradient>
<linearGradient id="paint18_linear_0_159" x1="10.0957" y1="9.68501" x2="709.955" y2="9.68496" gradientUnits="userSpaceOnUse">
<stop stop-color="white"></stop>
<stop offset="1" stop-color="white" stop-opacity="0"></stop>
</linearGradient>
</defs>
</svg>