<svg xmlns="http://www.w3.org/2000/svg" width="1381" height="199" viewBox="0 0 1381 199" fill="none">
  <path d="M41.6369 196.905C35.9084 195.647 30.8784 193.831 26.4073 191.316C21.9362 188.801 18.024 185.448 14.6707 181.535C11.3174 177.623 8.66272 172.873 6.42719 167.563C4.19165 162.254 2.65471 156.106 1.53694 149.26C0.419172 142.413 0 134.729 0 126.345V113.212C0 100.637 1.25749 89.7385 3.63275 80.6566C6.14773 71.5748 9.7805 64.0298 14.8105 58.1615C19.8404 52.2932 26.1279 47.9619 33.6728 45.1675C41.3575 42.373 50.2996 40.9758 60.4993 40.9758C66.3675 40.9758 71.8167 41.5347 76.9863 42.5128C82.0163 43.4908 86.6271 45.0277 90.8188 47.1236C95.0104 49.0797 98.7829 51.7344 101.996 54.9479C105.21 58.1615 108.004 61.934 110.24 66.2654C112.476 70.5967 114.292 75.487 115.549 80.9361C116.807 86.3852 117.645 92.5329 117.785 99.3793H81.7369C81.4574 93.9301 80.6191 89.4591 79.5013 85.6866C78.3836 81.9141 76.9863 78.98 75.17 76.7444C73.3536 74.5089 71.2578 72.8323 68.7428 71.8542C66.2278 70.8762 63.5731 70.3173 60.3596 70.3173C57.4254 70.3173 54.9104 70.5967 52.6749 71.2953C50.4393 71.9939 48.4832 73.1117 46.8066 74.5089C45.1299 75.9061 43.7327 77.7225 42.615 79.958C41.4972 82.1936 40.5191 84.8483 39.8205 88.0619C39.1219 91.2755 38.5631 94.7685 38.2836 98.8204C38.0042 102.733 37.8644 107.343 37.8644 112.373V128.302C37.8644 133.192 38.0042 137.663 38.2836 141.575C38.5631 145.487 39.1219 149.12 39.8205 152.194C40.5191 155.268 41.4972 157.922 42.615 160.158C43.7327 162.394 45.1299 164.21 46.8066 165.607C48.4832 167.004 50.4393 168.122 52.6749 168.681C54.9104 169.38 57.4254 169.659 60.3596 169.659C63.4334 169.659 66.2278 169.1 68.7428 168.122C71.2578 167.144 73.3536 165.467 75.17 163.232C76.9863 160.996 78.5233 157.922 79.5013 154.29C80.6191 150.517 81.3177 146.046 81.7369 140.597H117.785C117.506 150.657 115.969 159.459 113.174 166.725C110.38 174.13 106.607 180.138 101.857 185.028C96.9665 189.779 91.0982 193.412 84.2519 195.647C77.4055 197.883 69.4414 199 60.4993 199C53.5132 199 47.2258 198.442 41.4972 197.184L41.6369 196.905Z" fill="#f9f7e7"/>
  <path d="M171.154 44.1919H203.15C207.9 44.1919 212.092 47.4054 213.35 52.0162L253.03 195.51H215.585L206.783 160.021H167.102L158.3 195.51H121.273L160.954 52.0162C162.212 47.4054 166.403 44.1919 171.154 44.1919ZM200.495 130.819L187.082 75.7688H186.803L173.529 130.819H200.495Z" fill="#f9f7e7"/>
  <path d="M278.949 44.1919H359.149V74.0922H301.304V104.272H352.582V134.312H301.304V165.33H359.707V195.23H279.088C271.404 195.23 265.116 188.943 265.116 181.258V58.164C265.116 50.4793 271.404 44.1919 279.088 44.1919H278.949Z" fill="#f9f7e7"/>
  <path d="M378.804 44.1919H414.991V165.47H468.505V195.37H393.754C385.51 195.37 378.804 188.664 378.804 180.42V44.1919Z" fill="#f9f7e7"/>
  <path d="M482.288 44.1919H518.476V195.37H482.288V44.1919Z" fill="#f9f7e7"/>
  <path d="M635.168 134.595H686.446V104.555H635.168V74.3751H693.013V44.4748H612.813C605.128 44.4748 598.841 50.7623 598.841 58.4469V181.681C598.841 189.366 605.128 195.653 612.813 195.653H693.432V165.753H635.029V134.735L635.168 134.595Z" fill="#f9f7e7"/>
  <path d="M792.941 104.551L795.037 147.725H794.757L756.893 44.1916H726.853C719.168 44.1916 712.881 50.4791 712.881 58.1637V195.37H746.554V135.569L744.598 92.3954H744.877L782.741 195.51H812.642C820.326 195.51 826.614 189.222 826.614 181.537V44.3313H792.941V104.551Z" fill="#f9f7e7"/>
  <path d="M885.677 134.595H936.955V104.555H885.677V74.3751H943.522V44.4748H863.322C855.637 44.4748 849.35 50.7623 849.35 58.4469V181.681C849.35 189.366 855.637 195.653 863.322 195.653H943.941V165.753H885.537V134.735L885.677 134.595Z" fill="#f9f7e7"/>
  <path d="M1055.25 128.725C1058.75 126.21 1061.68 123.136 1063.91 119.643C1066.29 116.15 1068.11 112.238 1069.36 107.767C1070.62 103.295 1071.32 98.4052 1071.32 93.0958V91.8383C1071.32 83.1756 1070.06 75.7704 1067.41 69.7624C1064.89 63.7544 1061.12 58.8641 1056.09 55.0917C1051.2 51.3192 1045.05 48.5248 1037.93 46.8481C1030.8 45.1715 1022.7 44.3331 1013.48 44.3331H977.008C969.324 44.3331 963.036 50.6206 963.036 58.3052V195.511H999.224V140.042H1010.12L1040.3 195.511H1079.84L1045.47 133.894C1048.82 132.357 1052.18 130.82 1054.97 128.725H1055.25ZM999.364 72.5568H1012.36C1015.99 72.5568 1019.06 72.976 1021.72 73.6746C1024.37 74.3732 1026.61 75.4909 1028.29 77.0279C1030.1 78.5648 1031.36 80.5209 1032.2 83.0359C1033.04 85.5509 1033.6 88.6247 1033.6 92.2575V93.6547C1033.6 97.1477 1033.18 100.222 1032.2 102.737C1031.36 105.252 1029.96 107.208 1028.29 108.745C1026.47 110.282 1024.37 111.399 1021.72 112.098C1019.06 112.796 1015.99 113.216 1012.36 113.216H999.364V72.6965V72.5568Z" fill="#f9f7e7"/>
  <path d="M1144.2 137.244H1171.87V144.509C1171.87 147.304 1171.59 149.819 1171.17 152.054C1170.75 154.29 1170.05 156.525 1169.21 158.481C1168.38 160.437 1167.4 162.114 1166.14 163.511C1164.88 164.908 1163.35 166.166 1161.67 167.144C1159.99 168.122 1158.18 168.821 1156.08 169.38C1153.99 169.799 1151.75 170.078 1149.23 170.078C1146.3 170.078 1143.65 169.799 1141.27 169.1C1138.9 168.402 1136.8 167.423 1134.98 166.026C1133.17 164.629 1131.63 162.813 1130.37 160.717C1129.11 158.621 1128 155.966 1127.3 152.892C1126.46 149.819 1125.9 146.326 1125.48 142.274C1125.06 138.361 1124.92 133.751 1124.92 128.86V111.116C1124.92 106.226 1125.06 101.755 1125.48 97.8423C1125.9 93.9301 1126.32 90.4371 1127.16 87.3632C1128 84.2894 1128.84 81.7744 1130.09 79.5389C1131.35 77.3033 1132.75 75.6267 1134.42 74.2295C1136.1 72.8322 1138.2 71.8542 1140.43 71.1556C1142.67 70.457 1145.18 70.1776 1148.12 70.1776C1151.19 70.1776 1153.99 70.5967 1156.5 71.5747C1159.01 72.5528 1161.11 73.95 1162.79 75.7664C1164.6 77.5828 1166 79.958 1167.12 82.7524C1168.24 85.5469 1168.94 88.9002 1169.21 92.6726H1205.54C1205.26 86.9441 1204.42 81.6347 1203.03 76.8842C1201.77 72.1336 1199.95 67.8023 1197.58 64.0298C1195.2 60.1176 1192.41 56.7643 1189.06 53.9699C1185.7 51.1755 1181.93 48.6605 1177.74 46.8441C1173.55 44.888 1168.94 43.4908 1163.91 42.5127C1158.88 41.5347 1153.43 40.9758 1147.7 40.9758C1137.22 40.9758 1128.14 42.373 1120.59 45.1675C1113.05 47.9619 1106.62 52.2932 1101.73 58.1615C1096.7 64.0298 1093.07 71.5748 1090.55 80.6566C1088.18 89.7385 1086.92 100.637 1086.92 113.212V126.345C1086.92 134.868 1087.48 142.553 1088.6 149.399C1089.71 156.246 1091.25 162.394 1093.49 167.843C1095.58 173.292 1098.24 177.903 1101.45 181.815C1104.66 185.727 1108.3 188.941 1112.49 191.455C1116.68 193.97 1121.29 195.927 1126.6 197.044C1131.91 198.302 1137.5 198.861 1143.79 198.861C1148.68 198.861 1153.15 198.302 1157.06 197.324C1160.97 196.346 1164.32 194.949 1167.26 193.272C1170.19 191.595 1172.85 189.639 1175.08 187.404C1177.32 185.168 1179.13 182.933 1180.39 180.557L1182.07 195.368H1205.96V124.389C1205.96 116.705 1199.67 110.417 1191.99 110.417H1144.76V137.104L1144.2 137.244Z" fill="#f9f7e7"/>
  <path d="M1262.86 44.3331H1226.68V195.511H1262.86V44.3331Z" fill="#f9f7e7"/>
  <path d="M1322.07 165.613V134.595H1373.34V104.555H1322.07V74.3751H1379.91V44.4748H1299.71C1292.03 44.4748 1285.74 50.7623 1285.74 58.4469V181.681C1285.74 189.366 1292.03 195.653 1299.71 195.653H1380.33V165.753H1321.93L1322.07 165.613Z" fill="#f9f7e7"/>
  <!-- <path d="M675.033 0.599579L651.748 0.599578C637.005 0.599577 625.033 12.571 625.033 27.3138L648.319 27.3138C663.062 27.3138 675.033 15.3424 675.033 0.599579Z" fill="currentColor"/> -->
</svg>