<svg id="Calque_2" xmlns="http://www.w3.org/2000/svg" viewBox="0 0 829.4 179.61"><g id="Calque_1-2"><path d="m112.73,149.23c7-7,11.96-15.49,14.66-24.75h-2.85c-2.62,8.53-7.28,16.34-13.75,22.81-10.45,10.45-24.36,16.21-39.18,16.21s-28.73-5.76-39.18-16.21c-5.74-5.74-9.94-12.45-12.62-19.6.49-.33.92-.74,1.23-1.29,1.04-1.88.36-4.25-1.52-5.29-1.88-1.04-4.25-.37-5.29,1.51-1.04,1.88-.36,4.25,1.52,5.29.44.24.91.37,1.38.44,2.82,7.62,7.26,14.77,13.37,20.88,10.97,10.97,25.57,17.01,41.12,17.01s30.15-6.04,41.11-17.01Z" fill="#053725"></path><path d="m40.36,139.37c8.33,8.33,19.43,12.92,31.26,12.92,8.6,0,16.8-2.45,23.84-6.98l-2-2c-6.49,4.04-13.99,6.23-21.84,6.23-11.1,0-21.51-4.3-29.32-12.12-13-13-15.51-32.55-7.6-48.12,1.62.33,3.32-.35,4.17-1.87,1.04-1.88.36-4.25-1.52-5.29s-4.25-.37-5.29,1.51c-.76,1.38-.58,3.02.3,4.21-8.57,16.64-5.92,37.59,8,51.51Z" fill="#053725"></path><path d="m132.96,70.98l-2,2c6.2,10.49,9.51,22.49,9.51,35.03,0,18.43-7.15,35.74-20.14,48.72-12.99,13-30.3,20.15-48.72,20.15-11.47,0-22.48-2.81-32.31-8.04.19-1.53-.53-3.1-1.96-3.9-1.88-1.04-4.25-.37-5.29,1.51-1.04,1.88-.36,4.25,1.52,5.29,1.47.82,3.22.55,4.42-.49,10.23,5.44,21.69,8.36,33.62,8.36,19.16,0,37.15-7.44,50.66-20.96,13.51-13.51,20.94-31.5,20.94-50.66,0-13.25-3.57-25.96-10.25-37.01Z" fill="#053725"></path><path d="m22.89,59.29L71.46,10.73c1.39.54,3.02.26,4.14-.86,1.51-1.51,1.51-3.95,0-5.46s-3.95-1.51-5.46,0c-1.2,1.21-1.4,2.99-.68,4.44L20.95,57.35c-27.94,27.93-27.93,73.39,0,101.33,1.2,1.2,2.44,2.33,3.7,3.43l1.94-1.94c-1.27-1.1-2.51-2.23-3.71-3.42-26.85-26.88-26.86-70.59.01-97.46Z" fill="#053725"></path><path d="m30.49,66.98c-12.41,12.41-17.98,29.08-16.8,45.35h2.74c-1.18-15.56,4.13-31.53,16-43.41L93.66,7.42c1.4.58,3.08.31,4.22-.83,1.51-1.51,1.51-3.95,0-5.46s-3.95-1.51-5.46,0c-1.19,1.19-1.4,2.94-.72,4.37l-61.21,61.48Z" fill="#053725"></path><path d="m44.21,76.87l46.29-46.4c1.45.73,3.24.54,4.45-.67,1.51-1.51,1.51-3.95,0-5.46-1.51-1.51-3.95-1.51-5.46,0-1.11,1.11-1.39,2.74-.86,4.12l-46.36,46.47,1.94,1.94Z" fill="#053725"></path><path d="m50.15,86.68c-11.88,11.88-11.88,31.22,0,43.11,5.75,5.75,13.4,8.92,21.55,8.92s15.8-3.17,21.56-8.92c5.73-5.73,8.89-13.38,8.89-21.55s-3.15-15.83-8.89-21.55l-19.68-19.72,7.83-7.73,19.54,19.54c7.8,7.8,12.1,18.22,12.1,29.32,0,9.21-3.01,17.91-8.48,25.07-1.75-.59-3.71.05-4.64,1.72-1.04,1.88-.36,4.25,1.52,5.29s4.25.37,5.29-1.51c.68-1.22.56-2.62-.07-3.75,5.88-7.65,9.12-16.96,9.12-26.82,0-11.84-4.58-22.94-12.91-31.26l-19.52-19.52,7.97-7.87,19.47,19.47c10.44,10.44,16.19,24.36,16.19,39.18,0,.18-.02.35-.03.53-.91.29-1.73.9-2.23,1.8-1.04,1.88-.36,4.25,1.52,5.29s4.25.37,5.29-1.51c1.04-1.88.36-4.25-1.52-5.29-.11-.06-.22-.06-.33-.11,0-.24.03-.47.03-.71,0-15.56-6.04-30.16-17-41.12l-19.44-19.46,7.69-7.6,19.36,19.36c.31.31.58.64.88.95-.6,1.24-.57,2.75.29,3.95,1.25,1.75,3.68,2.15,5.43.9s2.15-3.69.89-5.44c-1.07-1.49-2.97-1.93-4.6-1.28-.32-.34-.62-.7-.96-1.03l-19.35-19.35,10.42-10.41c1.4.59,3.08.32,4.22-.82,1.51-1.51,1.51-3.95,0-5.46-1.51-1.51-3.95-1.51-5.46,0-1.18,1.18-1.4,2.93-.73,4.36l-61.21,61.03Z" fill="#053725"></path><path d="m198.41,126.15c-2.67-.57-5.05-1.45-7.17-2.66-2.11-1.21-3.96-2.74-5.52-4.6-1.57-1.86-2.86-4.05-3.87-6.56-1.02-2.52-1.78-5.4-2.28-8.64-.5-3.24-.75-6.83-.75-10.77v-6.2c0-5.94.58-11.06,1.74-15.35,1.16-4.29,2.91-7.83,5.25-10.6,2.34-2.78,5.3-4.82,8.88-6.15,3.59-1.32,7.8-1.99,12.64-1.99,2.78,0,5.36.24,7.75.72,2.38.49,4.57,1.2,6.54,2.15,1.97.95,3.72,2.19,5.25,3.71s2.83,3.29,3.9,5.33c1.07,2.03,1.9,4.33,2.52,6.9.61,2.57.97,5.46,1.06,8.69h-16.99c-.16-2.55-.5-4.7-1.02-6.46-.51-1.76-1.2-3.17-2.06-4.23-.85-1.07-1.86-1.84-3.03-2.32-1.16-.49-2.47-.73-3.92-.73-1.36,0-2.56.16-3.61.49-1.05.32-1.96.82-2.74,1.5-.77.68-1.43,1.54-1.99,2.59-.55,1.05-.98,2.32-1.3,3.8-.32,1.49-.56,3.17-.7,5.04-.15,1.87-.22,4.01-.22,6.39v7.51c0,2.29.07,4.38.22,6.25.14,1.87.38,3.54.7,5.01.32,1.47.76,2.73,1.3,3.78.55,1.05,1.22,1.9,1.99,2.57.78.66,1.69,1.15,2.74,1.48,1.05.32,2.26.48,3.61.48,1.45,0,2.76-.24,3.92-.72s2.17-1.26,3.03-2.32c.86-1.07,1.55-2.48,2.06-4.24.52-1.76.86-3.91,1.02-6.46h16.99c-.16,4.75-.88,8.85-2.17,12.33-1.3,3.47-3.08,6.34-5.36,8.6-2.28,2.26-5.04,3.92-8.3,4.98-3.26,1.07-6.99,1.6-11.18,1.6-3.3,0-6.27-.28-8.94-.85Z" fill="#053725"></path><path d="m259.37,54.21h15.06c2.24,0,4.21,1.5,4.81,3.66l18.7,67.53h-17.63l-4.17-16.71h-18.69l-4.12,16.71h-17.43l18.65-67.52c.6-2.16,2.57-3.66,4.81-3.66Zm13.83,40.77l-6.29-25.9h-.15l-6.25,25.9h12.69Z" fill="#053725"></path><path d="m310.18,54.21h37.73v14.1h-27.26v14.24h24.16v14.14h-24.16v14.63h27.5v14.09h-37.97c-3.63,0-6.58-2.94-6.58-6.58v-58.03c0-3.63,2.94-6.58,6.58-6.58Z" fill="#053725"></path><path d="m357.16,54.21h17.05v57.1h25.18v14.09h-35.18c-3.89,0-7.04-3.15-7.04-7.04V54.21Z" fill="#053725"></path><path d="m405.88,54.21h17.05v71.19h-17.05V54.21Z" fill="#053725"></path><path d="m478.58,96.68h24.16v-14.14h-24.16v-14.24h27.26v-14.1h-37.73c-3.63,0-6.58,2.94-6.58,6.58v58.03c0,3.63,2.94,6.58,6.58,6.58h37.97v-14.09h-27.5v-14.63Z" fill="#053725"></path><path d="m552.81,82.59l.97,20.34h-.15l-17.82-48.72h-14.15c-3.63,0-6.58,2.94-6.58,6.58v64.61h15.83v-28.18l-.92-20.34h.15l17.82,48.52h14.1c3.63,0,6.58-2.94,6.58-6.58V54.21h-15.84v28.38Z" fill="#053725"></path><path d="m596.49,96.68h24.16v-14.14h-24.16v-14.24h27.26v-14.1h-37.73c-3.63,0-6.58,2.94-6.58,6.58v58.03c0,3.63,2.94,6.58,6.58,6.58h37.97v-14.09h-27.5v-14.63Z" fill="#053725"></path><path d="m676.36,93.94c1.63-1.21,3-2.64,4.09-4.28,1.1-1.65,1.95-3.51,2.57-5.59.61-2.09.92-4.38.92-6.9v-.58c0-4.1-.6-7.57-1.81-10.41-1.22-2.84-2.98-5.15-5.3-6.92-2.33-1.78-5.17-3.06-8.52-3.85-3.36-.79-7.2-1.19-11.53-1.19h-17.2c-3.63,0-6.58,2.94-6.58,6.58v64.61h17.05v-26.1h5.14l14.23,26.1h18.64l-16.2-28.99c1.61-.71,3.17-1.47,4.5-2.46Zm-26.31-26.41h6.15c1.68,0,3.14.17,4.38.51,1.24.34,2.28.87,3.1,1.6.82.73,1.45,1.67,1.86,2.83.42,1.16.63,2.6.63,4.32v.63c0,1.67-.21,3.1-.63,4.26-.42,1.16-1.04,2.11-1.86,2.83-.82.73-1.86,1.26-3.1,1.6-1.24.34-2.7.51-4.38.51h-6.15v-19.08Z" fill="#053725"></path><path d="m718.22,97.99h13.03v3.44c0,1.29-.12,2.48-.34,3.56-.23,1.08-.53,2.08-.92,3-.39.93-.88,1.72-1.48,2.4-.59.68-1.29,1.26-2.08,1.72s-1.67.82-2.64,1.04c-.97.23-2.03.34-3.19.34-1.39,0-2.64-.15-3.76-.46-1.11-.3-2.1-.79-2.95-1.45-.86-.66-1.58-1.5-2.18-2.52-.59-1.01-1.09-2.25-1.48-3.7-.39-1.45-.67-3.12-.84-4.99-.18-1.87-.26-3.98-.26-6.34v-8.33c0-2.32.07-4.42.24-6.27s.42-3.5.78-4.94.81-2.66,1.36-3.68,1.24-1.85,2.06-2.49c.82-.65,1.76-1.13,2.83-1.45,1.07-.32,2.26-.49,3.59-.49,1.45,0,2.76.22,3.92.67,1.16.45,2.15,1.11,2.98,1.97.82.85,1.51,1.95,2.03,3.29.53,1.34.86,2.9.99,4.67h17.09c-.16-2.71-.55-5.19-1.16-7.43-.62-2.25-1.47-4.27-2.57-6.08-1.09-1.81-2.42-3.39-3.99-4.75s-3.34-2.48-5.3-3.36c-1.97-.89-4.14-1.57-6.52-2.03-2.37-.47-4.91-.7-7.63-.7-4.94,0-9.2.66-12.78,1.96-3.58,1.31-6.55,3.35-8.91,6.13-2.36,2.78-4.11,6.31-5.25,10.6-1.15,4.3-1.72,9.41-1.72,15.35v6.2c0,4,.26,7.63.77,10.87.52,3.24,1.28,6.13,2.28,8.66,1,2.53,2.26,4.72,3.76,6.56,1.5,1.84,3.23,3.36,5.18,4.55,1.95,1.2,4.17,2.07,6.63,2.64,2.47.57,5.16.85,8.06.85,2.32,0,4.4-.24,6.22-.7,1.82-.47,3.43-1.1,4.82-1.89,1.39-.79,2.61-1.7,3.65-2.74s1.88-2.11,2.49-3.24l.78,6.97h11.24v-33.42c0-3.63-2.94-6.58-6.58-6.58h-22.24v12.59Z" fill="#053725"></path><rect x="757.06" y="54.21" width="17.05" height="71.19" fill="#053725"></rect><path d="m801.9,111.31v-14.63h24.16v-14.14h-24.16v-14.24h27.26v-14.1h-37.73c-3.63,0-6.58,2.94-6.58,6.58v58.03c0,3.63,2.94,6.58,6.58,6.58h37.97v-14.09h-27.5Z" fill="#053725"></path></g></svg>